<svg width="1180" height="260" viewBox="0 0 1180 260" fill="none" xmlns="http://www.w3.org/2000/svg">
  <defs>
    <linearGradient id="mintGradient" x1="60" y1="38" x2="1024" y2="226" gradientUnits="userSpaceOnUse">
      <stop stop-color="#B9F6E3"/>
      <stop offset="0.42" stop-color="#76E6BE"/>
      <stop offset="1" stop-color="#4FC88A"/>
    </linearGradient>
    <filter id="softShadow" x="0" y="0" width="1180" height="260" filterUnits="userSpaceOnUse" color-interpolation-filters="sRGB">
      <feDropShadow dx="0" dy="12" stdDeviation="12" flood-color="#246C5C" flood-opacity="0.18"/>
    </filter>
  </defs>
  <g filter="url(#softShadow)">
    <rect x="28" y="92" width="126" height="14" rx="7" fill="url(#mintGradient)"/>
    <rect x="52" y="126" width="104" height="14" rx="7" fill="url(#mintGradient)"/>
    <rect x="80" y="160" width="78" height="14" rx="7" fill="url(#mintGradient)"/>
    <path d="M92 58H330C318 88 285 108 238 108H198L164 214C148 228 126 238 102 242L132 108H104C87 108 74 98 74 84C74 69 87 58 104 58H92Z" fill="url(#mintGradient)"/>
    <g transform="translate(286 178) skewX(-14)">
      <text x="0" y="0" fill="url(#mintGradient)" font-family="'Arial Black', 'Arial', sans-serif" font-size="144" font-style="italic" font-weight="900" letter-spacing="2">TRILUGA</text>
    </g>
    <path d="M1002 192L1064 138L1080 204L1002 192Z" fill="#2E3133"/>
  </g>
</svg>
